<svg width="1069" height="347" viewBox="0 0 1069 347" fill="none" xmlns="http://www.w3.org/2000/svg">
<g filter="url(#filter0_d_1_505)">
<rect x="50" y="69" width="85.0619" height="223" rx="5" fill="white"/>
</g>
<line x1="97.7773" y1="198.242" x2="89.5815" y2="198.242" stroke="#A2A5B2" stroke-linecap="round"/>
<line x1="97.7773" y1="143.067" x2="89.5815" y2="143.067" stroke="#A2A5B2" stroke-linecap="round"/>
<path d="M79.886 105.784H107.474" stroke="#687089" stroke-width="1.5" stroke-linecap="round" stroke-linejoin="round"/>
<path d="M93.6799 91.9895V119.577" stroke="#687089" stroke-width="1.5" stroke-linecap="round" stroke-linejoin="round"/>
<path d="M79.8862 170.154H107.474" stroke="#687089" stroke-width="1.5" stroke-linecap="round" stroke-linejoin="round"/>
<path d="M89.9138 222.182C90.6816 220.248 93.4196 220.248 94.1874 222.182L101.752 241.239C102.351 242.749 101.239 244.387 99.6149 244.387H84.4863C82.8624 244.387 81.7504 242.749 82.3495 241.239L89.9138 222.182Z" fill="#F44A45"/>
<path d="M94.1873 268.891C93.4194 270.826 90.6815 270.826 89.9137 268.891L82.3493 249.834C81.7503 248.325 82.8623 246.687 84.4861 246.687L99.6148 246.687C101.239 246.687 102.351 248.325 101.752 249.834L94.1873 268.891Z" fill="#A2A5B2"/>
<g filter="url(#filter1_d_1_505)">
<rect x="917" y="69" width="76" height="73" rx="4.16667" fill="white"/>
</g>
<path d="M952.563 114.129C958.95 114.129 964.128 108.951 964.128 102.564C964.128 96.1777 958.95 91.0002 952.563 91.0002C946.177 91.0002 940.999 96.1777 940.999 102.564C940.999 108.951 946.177 114.129 952.563 114.129Z" stroke="#F44A45" stroke-width="2.67" stroke-linecap="round" stroke-linejoin="round"/>
<path d="M969.91 119.911L960.73 110.732" stroke="#F44A45" stroke-width="2.67" stroke-linecap="round" stroke-linejoin="round"/>
<defs>
<filter id="filter0_d_1_505" x="0" y="24" width="185.062" height="323" filterUnits="userSpaceOnUse" color-interpolation-filters="sRGB">
<feFlood flood-opacity="0" result="BackgroundImageFix"/>
<feColorMatrix in="SourceAlpha" type="matrix" values="0 0 0 0 0 0 0 0 0 0 0 0 0 0 0 0 0 0 127 0" result="hardAlpha"/>
<feOffset dy="5"/>
<feGaussianBlur stdDeviation="25"/>
<feColorMatrix type="matrix" values="0 0 0 0 0.408333 0 0 0 0 0.130573 0 0 0 0 0.11059 0 0 0 0.1 0"/>
<feBlend mode="normal" in2="BackgroundImageFix" result="effect1_dropShadow_1_505"/>
<feBlend mode="normal" in="SourceGraphic" in2="effect1_dropShadow_1_505" result="shape"/>
</filter>
<filter id="filter1_d_1_505" x="841" y="0" width="228" height="225" filterUnits="userSpaceOnUse" color-interpolation-filters="sRGB">
<feFlood flood-opacity="0" result="BackgroundImageFix"/>
<feColorMatrix in="SourceAlpha" type="matrix" values="0 0 0 0 0 0 0 0 0 0 0 0 0 0 0 0 0 0 127 0" result="hardAlpha"/>
<feOffset dy="7"/>
<feGaussianBlur stdDeviation="38"/>
<feColorMatrix type="matrix" values="0 0 0 0 0.570833 0 0 0 0 0.206943 0 0 0 0 0.180764 0 0 0 0.18 0"/>
<feBlend mode="normal" in2="BackgroundImageFix" result="effect1_dropShadow_1_505"/>
<feBlend mode="normal" in="SourceGraphic" in2="effect1_dropShadow_1_505" result="shape"/>
</filter>
</defs>
</svg>
